<svg width="165" height="203" viewBox="0 0 165 203" fill="none" xmlns="http://www.w3.org/2000/svg">
<rect width="165" height="203" rx="6" fill="white"/>
<path d="M10.0439 14.7817C9.48112 14.62 9.07096 14.4217 8.81348 14.187C8.55827 13.95 8.43066 13.6584 8.43066 13.312C8.43066 12.9201 8.58675 12.5965 8.89893 12.3413C9.21338 12.0838 9.62126 11.9551 10.1226 11.9551C10.4644 11.9551 10.7686 12.0212 11.0352 12.1533C11.304 12.2855 11.5114 12.4678 11.6572 12.7002C11.8053 12.9326 11.8794 13.1867 11.8794 13.4624H11.2197C11.2197 13.1616 11.124 12.9258 10.9326 12.7549C10.7412 12.5817 10.4712 12.4951 10.1226 12.4951C9.79899 12.4951 9.54606 12.5669 9.36377 12.7104C9.18376 12.8517 9.09375 13.0488 9.09375 13.3018C9.09375 13.5046 9.1792 13.6766 9.3501 13.8179C9.52327 13.9569 9.81608 14.0845 10.2285 14.2007C10.6432 14.3169 10.9668 14.4456 11.1992 14.5869C11.4339 14.7259 11.6071 14.8888 11.7188 15.0757C11.8327 15.2625 11.8896 15.4824 11.8896 15.7354C11.8896 16.1387 11.7324 16.4622 11.418 16.7061C11.1035 16.9476 10.6831 17.0684 10.1567 17.0684C9.81494 17.0684 9.49593 17.0034 9.19971 16.8735C8.90348 16.7414 8.67448 16.5614 8.5127 16.3335C8.35319 16.1056 8.27344 15.847 8.27344 15.5576H8.93311C8.93311 15.8584 9.04362 16.0965 9.26465 16.272C9.48796 16.4451 9.78532 16.5317 10.1567 16.5317C10.5031 16.5317 10.7686 16.4611 10.9531 16.3198C11.1377 16.1785 11.23 15.986 11.23 15.7422C11.23 15.4984 11.1445 15.3104 10.9736 15.1782C10.8027 15.0438 10.4928 14.9116 10.0439 14.7817ZM13.3218 17H12.6895V13.3018H13.3218V17ZM12.6382 12.3208C12.6382 12.2183 12.6689 12.1317 12.7305 12.061C12.7943 11.9904 12.8877 11.9551 13.0107 11.9551C13.1338 11.9551 13.2272 11.9904 13.291 12.061C13.3548 12.1317 13.3867 12.2183 13.3867 12.3208C13.3867 12.4233 13.3548 12.5088 13.291 12.5771C13.2272 12.6455 13.1338 12.6797 13.0107 12.6797C12.8877 12.6797 12.7943 12.6455 12.7305 12.5771C12.6689 12.5088 12.6382 12.4233 12.6382 12.3208ZM14.9316 13.3018L14.9487 13.7119C15.2199 13.3929 15.5856 13.2334 16.0459 13.2334C16.5632 13.2334 16.9152 13.4316 17.1021 13.8281C17.2251 13.6504 17.3846 13.5068 17.5806 13.3975C17.7788 13.2881 18.0124 13.2334 18.2812 13.2334C19.0924 13.2334 19.5049 13.6629 19.5186 14.522V17H18.8862V14.5596C18.8862 14.2952 18.8258 14.0981 18.7051 13.9683C18.5843 13.8361 18.3815 13.77 18.0967 13.77C17.862 13.77 17.6672 13.8407 17.5122 13.9819C17.3573 14.1209 17.2673 14.3089 17.2422 14.5459V17H16.6064V14.5767C16.6064 14.0389 16.3433 13.77 15.8169 13.77C15.4022 13.77 15.1185 13.9466 14.9658 14.2998V17H14.3335V13.3018H14.9316ZM23.5996 15.1919C23.5996 15.7547 23.4709 16.2082 23.2134 16.5522C22.9559 16.8963 22.6073 17.0684 22.1675 17.0684C21.7186 17.0684 21.3654 16.9259 21.1079 16.6411V18.4219H20.4756V13.3018H21.0532L21.084 13.7119C21.3415 13.3929 21.6992 13.2334 22.1572 13.2334C22.6016 13.2334 22.9525 13.4009 23.21 13.7358C23.4697 14.0708 23.5996 14.5368 23.5996 15.1338V15.1919ZM22.9673 15.1201C22.9673 14.7031 22.8784 14.3739 22.7007 14.1323C22.5229 13.8908 22.2791 13.77 21.9692 13.77C21.5864 13.77 21.2993 13.9398 21.1079 14.2793V16.0464C21.297 16.3836 21.5864 16.5522 21.9761 16.5522C22.2791 16.5522 22.5195 16.4326 22.6973 16.1934C22.8773 15.9518 22.9673 15.5941 22.9673 15.1201ZM25.0933 17H24.4609V11.75H25.0933V17ZM27.6431 17.0684C27.1418 17.0684 26.7339 16.9043 26.4194 16.5762C26.105 16.2458 25.9478 15.8049 25.9478 15.2534V15.1372C25.9478 14.7703 26.0173 14.4434 26.1562 14.1562C26.2975 13.8669 26.4935 13.6413 26.7441 13.4795C26.9971 13.3154 27.2705 13.2334 27.5645 13.2334C28.0452 13.2334 28.4189 13.3918 28.6855 13.7085C28.9521 14.0252 29.0854 14.4787 29.0854 15.0688V15.332H26.5801C26.5892 15.6966 26.6951 15.9917 26.8979 16.2173C27.103 16.4406 27.3628 16.5522 27.6772 16.5522C27.9006 16.5522 28.0897 16.5067 28.2446 16.4155C28.3996 16.3244 28.5352 16.2036 28.6514 16.0532L29.0376 16.354C28.7277 16.8302 28.2629 17.0684 27.6431 17.0684ZM27.5645 13.7529C27.3092 13.7529 27.0951 13.8464 26.9219 14.0332C26.7487 14.2178 26.6416 14.4775 26.6006 14.8125H28.4531V14.7646C28.4349 14.4434 28.3483 14.195 28.1934 14.0195C28.0384 13.8418 27.8288 13.7529 27.5645 13.7529ZM31.6558 17V12.0234H33.2827C33.8228 12.0234 34.2284 12.1351 34.4995 12.3584C34.7729 12.5817 34.9097 12.9121 34.9097 13.3496C34.9097 13.582 34.8436 13.7882 34.7114 13.9683C34.5793 14.146 34.3993 14.2839 34.1714 14.3818C34.4403 14.457 34.6522 14.6006 34.8071 14.8125C34.9644 15.0221 35.043 15.2728 35.043 15.5645C35.043 16.0111 34.8983 16.362 34.6089 16.6172C34.3195 16.8724 33.9105 17 33.3818 17H31.6558ZM32.312 14.6724V16.4634H33.3955C33.7008 16.4634 33.9412 16.3848 34.1167 16.2275C34.2944 16.068 34.3833 15.8493 34.3833 15.5713C34.3833 14.972 34.0575 14.6724 33.4058 14.6724H32.312ZM32.312 14.146H33.3032C33.5903 14.146 33.8193 14.0742 33.9902 13.9307C34.1634 13.7871 34.25 13.5923 34.25 13.3462C34.25 13.0728 34.1702 12.8745 34.0107 12.7515C33.8512 12.6261 33.6086 12.5635 33.2827 12.5635H32.312V14.146ZM36.605 17H35.9727V11.75H36.605V17ZM38.3071 17H37.6748V13.3018H38.3071V17ZM37.6235 12.3208C37.6235 12.2183 37.6543 12.1317 37.7158 12.061C37.7796 11.9904 37.873 11.9551 37.9961 11.9551C38.1191 11.9551 38.2126 11.9904 38.2764 12.061C38.3402 12.1317 38.3721 12.2183 38.3721 12.3208C38.3721 12.4233 38.3402 12.5088 38.2764 12.5771C38.2126 12.6455 38.1191 12.6797 37.9961 12.6797C37.873 12.6797 37.7796 12.6455 37.7158 12.5771C37.6543 12.5088 37.6235 12.4233 37.6235 12.3208ZM39.9204 13.3018L39.9409 13.7666C40.2235 13.4111 40.5926 13.2334 41.0483 13.2334C41.8299 13.2334 42.2241 13.6743 42.231 14.5562V17H41.5986V14.5527C41.5964 14.2861 41.5348 14.089 41.4141 13.9614C41.2956 13.8338 41.1099 13.77 40.8569 13.77C40.6519 13.77 40.4718 13.8247 40.3169 13.9341C40.1619 14.0435 40.0412 14.187 39.9546 14.3647V17H39.3223V13.3018H39.9204ZM44.2168 15.2876L43.8203 15.7012V17H43.188V11.75H43.8203V14.9253L44.1587 14.5186L45.3105 13.3018H46.0796L44.6406 14.8467L46.2471 17H45.5054L44.2168 15.2876Z" fill="black"/>
<rect x="8.25" y="27.25" width="147.5" height="20.5" rx="4.75" fill="white" stroke="#CFCFCF" stroke-width="0.5"/>
<g filter="url(#filter0_d)">
<rect x="8" y="58" width="148" height="21" rx="5" fill="white"/>
<rect x="8.25" y="58.25" width="147.5" height="20.5" rx="4.75" stroke="#3D67FF" stroke-width="0.5"/>
</g>
<rect x="8.5" y="89.5" width="147" height="38" rx="4.5" fill="white" stroke="#CFCFCF"/>
<path d="M20.2715 37.1743H17.5864V40H16.7427V33.6016H20.7065V34.2959H17.5864V36.4844H20.2715V37.1743ZM22.4731 40H21.6602V35.2451H22.4731V40ZM21.5942 33.9839C21.5942 33.8521 21.6338 33.7407 21.7129 33.6499C21.7949 33.5591 21.915 33.5137 22.0732 33.5137C22.2314 33.5137 22.3516 33.5591 22.4336 33.6499C22.5156 33.7407 22.5566 33.8521 22.5566 33.9839C22.5566 34.1157 22.5156 34.2256 22.4336 34.3135C22.3516 34.4014 22.2314 34.4453 22.0732 34.4453C21.915 34.4453 21.7949 34.4014 21.7129 34.3135C21.6338 34.2256 21.5942 34.1157 21.5942 33.9839ZM26.0767 35.9746C25.9536 35.9541 25.8203 35.9438 25.6768 35.9438C25.1436 35.9438 24.7817 36.1709 24.5913 36.625V40H23.7783V35.2451H24.5693L24.5825 35.7944C24.8491 35.3696 25.2271 35.1572 25.7163 35.1572C25.8745 35.1572 25.9946 35.1777 26.0767 35.2188V35.9746ZM29.5967 38.7388C29.5967 38.519 29.5132 38.3491 29.3462 38.229C29.1821 38.106 28.8936 38.0005 28.4805 37.9126C28.0703 37.8247 27.7437 37.7192 27.5005 37.5962C27.2603 37.4731 27.0815 37.3267 26.9644 37.1567C26.8501 36.9868 26.793 36.7847 26.793 36.5503C26.793 36.1606 26.957 35.8311 27.2852 35.5615C27.6162 35.292 28.0381 35.1572 28.5508 35.1572C29.0898 35.1572 29.5264 35.2964 29.8604 35.5747C30.1973 35.853 30.3657 36.209 30.3657 36.6426H29.5483C29.5483 36.4199 29.4531 36.228 29.2627 36.0669C29.0752 35.9058 28.8379 35.8252 28.5508 35.8252C28.2549 35.8252 28.0234 35.8896 27.8564 36.0186C27.6895 36.1475 27.606 36.3159 27.606 36.5239C27.606 36.7202 27.6836 36.8682 27.8389 36.9678C27.9941 37.0674 28.2739 37.1626 28.6782 37.2534C29.0854 37.3442 29.415 37.4526 29.667 37.5786C29.9189 37.7046 30.105 37.8569 30.2251 38.0356C30.3481 38.2114 30.4097 38.4268 30.4097 38.6816C30.4097 39.1064 30.2397 39.4478 29.8999 39.7056C29.5601 39.9604 29.1191 40.0879 28.5771 40.0879C28.1963 40.0879 27.8594 40.0205 27.5664 39.8857C27.2734 39.751 27.0435 39.5635 26.8765 39.3232C26.7124 39.0801 26.6304 38.8179 26.6304 38.5366H27.4434C27.458 38.8091 27.5664 39.0259 27.7686 39.187C27.9736 39.3452 28.2432 39.4243 28.5771 39.4243C28.8848 39.4243 29.1309 39.3628 29.3154 39.2397C29.5029 39.1138 29.5967 38.9468 29.5967 38.7388ZM32.5718 34.0938V35.2451H33.4595V35.8735H32.5718V38.8223C32.5718 39.0127 32.6113 39.1562 32.6904 39.2529C32.7695 39.3467 32.9043 39.3936 33.0947 39.3936C33.1885 39.3936 33.3174 39.376 33.4814 39.3408V40C33.2676 40.0586 33.0596 40.0879 32.8574 40.0879C32.4941 40.0879 32.2202 39.978 32.0356 39.7583C31.8511 39.5386 31.7588 39.2266 31.7588 38.8223V35.8735H30.8931V35.2451H31.7588V34.0938H32.5718ZM41.6904 40H40.8423L37.6211 35.0693V40H36.7729V33.6016H37.6211L40.8511 38.5542V33.6016H41.6904V40ZM45.9971 40C45.9502 39.9062 45.9121 39.7393 45.8828 39.499C45.5049 39.8916 45.0537 40.0879 44.5293 40.0879C44.0605 40.0879 43.6753 39.9561 43.3735 39.6924C43.0747 39.4258 42.9253 39.0889 42.9253 38.6816C42.9253 38.1865 43.1128 37.8027 43.4878 37.5303C43.8657 37.2549 44.396 37.1172 45.0786 37.1172H45.8696V36.7437C45.8696 36.4595 45.7847 36.2339 45.6147 36.0669C45.4448 35.897 45.1943 35.812 44.8633 35.812C44.5732 35.812 44.3301 35.8853 44.1338 36.0317C43.9375 36.1782 43.8394 36.3555 43.8394 36.5635H43.022C43.022 36.3262 43.1055 36.0977 43.2725 35.8779C43.4424 35.6553 43.6709 35.4795 43.958 35.3506C44.248 35.2217 44.5659 35.1572 44.9116 35.1572C45.4595 35.1572 45.8887 35.2949 46.1992 35.5703C46.5098 35.8428 46.6709 36.2192 46.6826 36.6997V38.8882C46.6826 39.3247 46.7383 39.6719 46.8496 39.9297V40H45.9971ZM44.6479 39.3804C44.9028 39.3804 45.1445 39.3145 45.373 39.1826C45.6016 39.0508 45.7671 38.8794 45.8696 38.6685V37.6929H45.2324C44.2363 37.6929 43.7383 37.9844 43.7383 38.5674C43.7383 38.8223 43.8232 39.0215 43.9932 39.165C44.1631 39.3086 44.3813 39.3804 44.6479 39.3804ZM48.7217 35.2451L48.7437 35.7725C49.0923 35.3623 49.5625 35.1572 50.1543 35.1572C50.8193 35.1572 51.272 35.4121 51.5122 35.9219C51.6704 35.6934 51.8755 35.5088 52.1274 35.3682C52.3823 35.2275 52.6826 35.1572 53.0283 35.1572C54.0713 35.1572 54.6016 35.7095 54.6191 36.814V40H53.8062V36.8623C53.8062 36.5225 53.7285 36.269 53.5732 36.1021C53.418 35.9321 53.1572 35.8472 52.791 35.8472C52.4893 35.8472 52.2388 35.938 52.0396 36.1196C51.8403 36.2983 51.7246 36.54 51.6924 36.8447V40H50.875V36.8843C50.875 36.1929 50.5366 35.8472 49.8599 35.8472C49.3267 35.8472 48.9619 36.0742 48.7656 36.5283V40H47.9526V35.2451H48.7217ZM57.8228 40.0879C57.1782 40.0879 56.6538 39.877 56.2495 39.4551C55.8452 39.0303 55.6431 38.4634 55.6431 37.7544V37.605C55.6431 37.1333 55.7324 36.7129 55.9111 36.3438C56.0928 35.9717 56.3447 35.6816 56.667 35.4736C56.9922 35.2627 57.3438 35.1572 57.7217 35.1572C58.3398 35.1572 58.8203 35.3608 59.1631 35.7681C59.5059 36.1753 59.6772 36.7583 59.6772 37.5171V37.8555H56.4561C56.4678 38.3242 56.604 38.7036 56.8647 38.9937C57.1284 39.2808 57.4624 39.4243 57.8667 39.4243C58.1538 39.4243 58.397 39.3657 58.5962 39.2485C58.7954 39.1313 58.9697 38.9761 59.1191 38.7827L59.6157 39.1694C59.2173 39.7817 58.6196 40.0879 57.8228 40.0879ZM57.7217 35.8252C57.3936 35.8252 57.1182 35.9453 56.8955 36.1855C56.6729 36.4229 56.5352 36.7568 56.4824 37.1875H58.8643V37.126C58.8408 36.7129 58.7295 36.3936 58.5303 36.168C58.3311 35.9395 58.0615 35.8252 57.7217 35.8252Z" fill="#5E5E5E"/>
<path d="M21.1636 65.2959H19.1069V71H18.2676V65.2959H16.2153V64.6016H21.1636V65.2959ZM23.519 71.0879C22.8745 71.0879 22.3501 70.877 21.9458 70.4551C21.5415 70.0303 21.3394 69.4634 21.3394 68.7544V68.605C21.3394 68.1333 21.4287 67.7129 21.6074 67.3438C21.7891 66.9717 22.041 66.6816 22.3633 66.4736C22.6885 66.2627 23.04 66.1572 23.418 66.1572C24.0361 66.1572 24.5166 66.3608 24.8594 66.7681C25.2021 67.1753 25.3735 67.7583 25.3735 68.5171V68.8555H22.1523C22.1641 69.3242 22.3003 69.7036 22.561 69.9937C22.8247 70.2808 23.1587 70.4243 23.563 70.4243C23.8501 70.4243 24.0933 70.3657 24.2925 70.2485C24.4917 70.1313 24.666 69.9761 24.8154 69.7827L25.312 70.1694C24.9136 70.7817 24.3159 71.0879 23.519 71.0879ZM23.418 66.8252C23.0898 66.8252 22.8145 66.9453 22.5918 67.1855C22.3691 67.4229 22.2314 67.7568 22.1787 68.1875H24.5605V68.126C24.5371 67.7129 24.4258 67.3936 24.2266 67.168C24.0273 66.9395 23.7578 66.8252 23.418 66.8252ZM27.9136 67.981L28.9683 66.2451H29.9175L28.3618 68.5962L29.9658 71H29.0254L27.9268 69.2202L26.8281 71H25.8833L27.4873 68.5962L25.9316 66.2451H26.8721L27.9136 67.981ZM31.8862 65.0938V66.2451H32.7739V66.8735H31.8862V69.8223C31.8862 70.0127 31.9258 70.1562 32.0049 70.2529C32.084 70.3467 32.2188 70.3936 32.4092 70.3936C32.5029 70.3936 32.6318 70.376 32.7959 70.3408V71C32.582 71.0586 32.374 71.0879 32.1719 71.0879C31.8086 71.0879 31.5347 70.978 31.3501 70.7583C31.1655 70.5386 31.0732 70.2266 31.0732 69.8223V66.8735H30.2075V66.2451H31.0732V65.0938H31.8862ZM34 71V66.8735H33.2485V66.2451H34V65.8408C34 65.3105 34.1509 64.8975 34.4526 64.6016C34.7573 64.3057 35.1865 64.1577 35.7402 64.1577C36.0684 64.1577 36.4829 64.2471 36.9839 64.4258L36.8477 65.1113C36.4814 64.9648 36.1328 64.8916 35.8018 64.8916C35.4531 64.8916 35.2012 64.9707 35.0459 65.1289C34.8936 65.2842 34.8174 65.5186 34.8174 65.832V66.2451H35.7886V66.8735H34.8174V71H34ZM37.3882 71H36.5708V66.2451H37.3882V71ZM40.6841 71.0879C40.0396 71.0879 39.5151 70.877 39.1108 70.4551C38.7065 70.0303 38.5044 69.4634 38.5044 68.7544V68.605C38.5044 68.1333 38.5938 67.7129 38.7725 67.3438C38.9541 66.9717 39.2061 66.6816 39.5283 66.4736C39.8535 66.2627 40.2051 66.1572 40.583 66.1572C41.2012 66.1572 41.6816 66.3608 42.0244 66.7681C42.3672 67.1753 42.5386 67.7583 42.5386 68.5171V68.8555H39.3174C39.3291 69.3242 39.4653 69.7036 39.7261 69.9937C39.9897 70.2808 40.3237 70.4243 40.728 70.4243C41.0151 70.4243 41.2583 70.3657 41.4575 70.2485C41.6567 70.1313 41.8311 69.9761 41.9805 69.7827L42.4771 70.1694C42.0786 70.7817 41.481 71.0879 40.6841 71.0879ZM40.583 66.8252C40.2549 66.8252 39.9795 66.9453 39.7568 67.1855C39.5342 67.4229 39.3965 67.7568 39.3438 68.1875H41.7256V68.126C41.7021 67.7129 41.5908 67.3936 41.3916 67.168C41.1924 66.9395 40.9229 66.8252 40.583 66.8252ZM44.3667 71H43.5537V64.25H44.3667V71ZM45.4741 68.583C45.4741 67.8535 45.647 67.2676 45.9927 66.8252C46.3384 66.3799 46.791 66.1572 47.3506 66.1572C47.9072 66.1572 48.3481 66.3477 48.6733 66.7285V64.25H49.4863V71H48.7393L48.6997 70.4902C48.3745 70.8887 47.9219 71.0879 47.3418 71.0879C46.791 71.0879 46.3413 70.8623 45.9927 70.4111C45.647 69.96 45.4741 69.3711 45.4741 68.6445V68.583ZM46.2871 68.6753C46.2871 69.2144 46.3984 69.6362 46.6211 69.9409C46.8438 70.2456 47.1514 70.3979 47.5439 70.3979C48.0596 70.3979 48.436 70.1665 48.6733 69.7036V67.5195C48.4302 67.0713 48.0566 66.8472 47.5527 66.8472C47.1543 66.8472 46.8438 67.001 46.6211 67.3086C46.3984 67.6162 46.2871 68.0718 46.2871 68.6753Z" fill="black"/>
<path d="M17.8325 95.6016L19.9243 100.822L22.0161 95.6016H23.1104V102H22.2666V99.5083L22.3457 96.8188L20.2451 102H19.5991L17.5029 96.832L17.5864 99.5083V102H16.7427V95.6016H17.8325ZM27.4082 101.53C27.0918 101.902 26.6274 102.088 26.0151 102.088C25.5083 102.088 25.1216 101.941 24.855 101.648C24.5913 101.353 24.458 100.916 24.4551 100.339V97.2451H25.2681V100.317C25.2681 101.038 25.561 101.398 26.147 101.398C26.7681 101.398 27.1812 101.167 27.3862 100.704V97.2451H28.1992V102H27.4258L27.4082 101.53ZM30.3218 102H29.5088V95.25H30.3218V102ZM32.73 96.0938V97.2451H33.6177V97.8735H32.73V100.822C32.73 101.013 32.7695 101.156 32.8486 101.253C32.9277 101.347 33.0625 101.394 33.2529 101.394C33.3467 101.394 33.4756 101.376 33.6396 101.341V102C33.4258 102.059 33.2178 102.088 33.0156 102.088C32.6523 102.088 32.3784 101.978 32.1938 101.758C32.0093 101.539 31.917 101.227 31.917 100.822V97.8735H31.0513V97.2451H31.917V96.0938H32.73ZM35.4546 102H34.6416V97.2451H35.4546V102ZM34.5757 95.9839C34.5757 95.8521 34.6152 95.7407 34.6943 95.6499C34.7764 95.5591 34.8965 95.5137 35.0547 95.5137C35.2129 95.5137 35.333 95.5591 35.415 95.6499C35.4971 95.7407 35.5381 95.8521 35.5381 95.9839C35.5381 96.1157 35.4971 96.2256 35.415 96.3135C35.333 96.4014 35.2129 96.4453 35.0547 96.4453C34.8965 96.4453 34.7764 96.4014 34.6943 96.3135C34.6152 96.2256 34.5757 96.1157 34.5757 95.9839ZM37.6431 102H36.8301V95.25H37.6431V102ZM39.8315 102H39.0186V97.2451H39.8315V102ZM38.9526 95.9839C38.9526 95.8521 38.9922 95.7407 39.0713 95.6499C39.1533 95.5591 39.2734 95.5137 39.4316 95.5137C39.5898 95.5137 39.71 95.5591 39.792 95.6499C39.874 95.7407 39.915 95.8521 39.915 95.9839C39.915 96.1157 39.874 96.2256 39.792 96.3135C39.71 96.4014 39.5898 96.4453 39.4316 96.4453C39.2734 96.4453 39.1533 96.4014 39.0713 96.3135C38.9922 96.2256 38.9526 96.1157 38.9526 95.9839ZM41.9058 97.2451L41.9321 97.8428C42.2954 97.3857 42.77 97.1572 43.356 97.1572C44.3608 97.1572 44.8677 97.7241 44.8765 98.8579V102H44.0635V98.8535C44.0605 98.5107 43.9814 98.2573 43.8262 98.0933C43.6738 97.9292 43.4351 97.8472 43.1099 97.8472C42.8462 97.8472 42.6147 97.9175 42.4155 98.0581C42.2163 98.1987 42.061 98.3833 41.9497 98.6118V102H41.1367V97.2451H41.9058ZM48.0757 102.088C47.4312 102.088 46.9067 101.877 46.5024 101.455C46.0981 101.03 45.896 100.463 45.896 99.7544V99.605C45.896 99.1333 45.9854 98.7129 46.1641 98.3438C46.3457 97.9717 46.5977 97.6816 46.9199 97.4736C47.2451 97.2627 47.5967 97.1572 47.9746 97.1572C48.5928 97.1572 49.0732 97.3608 49.416 97.7681C49.7588 98.1753 49.9302 98.7583 49.9302 99.5171V99.8555H46.709C46.7207 100.324 46.8569 100.704 47.1177 100.994C47.3813 101.281 47.7153 101.424 48.1196 101.424C48.4067 101.424 48.6499 101.366 48.8491 101.249C49.0483 101.131 49.2227 100.976 49.3721 100.783L49.8687 101.169C49.4702 101.782 48.8726 102.088 48.0757 102.088ZM47.9746 97.8252C47.6465 97.8252 47.3711 97.9453 47.1484 98.1855C46.9258 98.4229 46.7881 98.7568 46.7354 99.1875H49.1172V99.126C49.0938 98.7129 48.9824 98.3936 48.7832 98.168C48.584 97.9395 48.3145 97.8252 47.9746 97.8252ZM57.48 96.2959H55.4233V102H54.584V96.2959H52.5317V95.6016H57.48V96.2959ZM59.8354 102.088C59.1909 102.088 58.6665 101.877 58.2622 101.455C57.8579 101.03 57.6558 100.463 57.6558 99.7544V99.605C57.6558 99.1333 57.7451 98.7129 57.9238 98.3438C58.1055 97.9717 58.3574 97.6816 58.6797 97.4736C59.0049 97.2627 59.3564 97.1572 59.7344 97.1572C60.3525 97.1572 60.833 97.3608 61.1758 97.7681C61.5186 98.1753 61.6899 98.7583 61.6899 99.5171V99.8555H58.4688C58.4805 100.324 58.6167 100.704 58.8774 100.994C59.1411 101.281 59.4751 101.424 59.8794 101.424C60.1665 101.424 60.4097 101.366 60.6089 101.249C60.8081 101.131 60.9824 100.976 61.1318 100.783L61.6284 101.169C61.23 101.782 60.6323 102.088 59.8354 102.088ZM59.7344 97.8252C59.4062 97.8252 59.1309 97.9453 58.9082 98.1855C58.6855 98.4229 58.5479 98.7568 58.4951 99.1875H60.877V99.126C60.8535 98.7129 60.7422 98.3936 60.543 98.168C60.3438 97.9395 60.0742 97.8252 59.7344 97.8252ZM64.23 98.981L65.2847 97.2451H66.2339L64.6782 99.5962L66.2822 102H65.3418L64.2432 100.22L63.1445 102H62.1997L63.8037 99.5962L62.248 97.2451H63.1885L64.23 98.981ZM68.2026 96.0938V97.2451H69.0903V97.8735H68.2026V100.822C68.2026 101.013 68.2422 101.156 68.3213 101.253C68.4004 101.347 68.5352 101.394 68.7256 101.394C68.8193 101.394 68.9482 101.376 69.1123 101.341V102C68.8984 102.059 68.6904 102.088 68.4883 102.088C68.125 102.088 67.8511 101.978 67.6665 101.758C67.4819 101.539 67.3896 101.227 67.3896 100.822V97.8735H66.5239V97.2451H67.3896V96.0938H68.2026Z" fill="#5E5E5E"/>
<rect x="8" y="141" width="14" height="14" rx="2" fill="#0148FF"/>
<rect x="80" y="141" width="14" height="14" rx="7" fill="#0148FF"/>
<g filter="url(#filter1_d)">
<rect x="84" y="145" width="6" height="6" rx="3" fill="white"/>
</g>
<g filter="url(#filter2_d)">
<path d="M11 148.333L13.8571 151L19 145" stroke="white" stroke-linecap="round" stroke-linejoin="round"/>
</g>
<path d="M31.4492 148.97C31.3701 149.646 31.1196 150.169 30.6978 150.539C30.2788 150.905 29.7207 151.088 29.0234 151.088C28.2676 151.088 27.6611 150.817 27.2041 150.275C26.75 149.733 26.5229 149.008 26.5229 148.1V147.484C26.5229 146.89 26.6284 146.367 26.8394 145.916C27.0532 145.464 27.355 145.119 27.7446 144.878C28.1343 144.635 28.5854 144.514 29.0981 144.514C29.7778 144.514 30.3228 144.704 30.7329 145.085C31.1431 145.463 31.3818 145.987 31.4492 146.658H30.6011C30.5278 146.148 30.3682 145.779 30.1221 145.551C29.8789 145.322 29.5376 145.208 29.0981 145.208C28.5591 145.208 28.1357 145.407 27.8281 145.806C27.5234 146.204 27.3711 146.771 27.3711 147.506V148.126C27.3711 148.82 27.5161 149.373 27.8062 149.783C28.0962 150.193 28.502 150.398 29.0234 150.398C29.4922 150.398 29.8511 150.292 30.1001 150.082C30.3521 149.868 30.519 149.497 30.6011 148.97H31.4492ZM33.2905 146.821C33.6509 146.378 34.1196 146.157 34.6968 146.157C35.7017 146.157 36.2085 146.724 36.2173 147.858V151H35.4043V147.854C35.4014 147.511 35.3223 147.257 35.167 147.093C35.0146 146.929 34.7759 146.847 34.4507 146.847C34.187 146.847 33.9556 146.917 33.7563 147.058C33.5571 147.199 33.4019 147.383 33.2905 147.612V151H32.4775V144.25H33.2905V146.821ZM39.4077 151.088C38.7632 151.088 38.2388 150.877 37.8345 150.455C37.4302 150.03 37.228 149.463 37.228 148.754V148.605C37.228 148.133 37.3174 147.713 37.4961 147.344C37.6777 146.972 37.9297 146.682 38.252 146.474C38.5771 146.263 38.9287 146.157 39.3066 146.157C39.9248 146.157 40.4053 146.361 40.748 146.768C41.0908 147.175 41.2622 147.758 41.2622 148.517V148.855H38.041C38.0527 149.324 38.189 149.704 38.4497 149.994C38.7134 150.281 39.0474 150.424 39.4517 150.424C39.7388 150.424 39.9819 150.366 40.1812 150.249C40.3804 150.131 40.5547 149.976 40.7041 149.783L41.2007 150.169C40.8022 150.782 40.2046 151.088 39.4077 151.088ZM39.3066 146.825C38.9785 146.825 38.7031 146.945 38.4805 147.186C38.2578 147.423 38.1201 147.757 38.0674 148.188H40.4492V148.126C40.4258 147.713 40.3145 147.394 40.1152 147.168C39.916 146.939 39.6465 146.825 39.3066 146.825ZM44.1143 150.424C44.4043 150.424 44.6577 150.336 44.8745 150.161C45.0913 149.985 45.2114 149.765 45.2349 149.501H46.0039C45.9893 149.774 45.8955 150.033 45.7227 150.279C45.5498 150.525 45.3184 150.722 45.0283 150.868C44.7412 151.015 44.4365 151.088 44.1143 151.088C43.4668 151.088 42.9512 150.873 42.5674 150.442C42.1865 150.008 41.9961 149.417 41.9961 148.667V148.53C41.9961 148.067 42.0811 147.656 42.251 147.295C42.4209 146.935 42.6641 146.655 42.9805 146.456C43.2998 146.257 43.6763 146.157 44.1099 146.157C44.6431 146.157 45.0854 146.317 45.437 146.636C45.7915 146.956 45.9805 147.37 46.0039 147.88H45.2349C45.2114 147.572 45.0942 147.32 44.8833 147.124C44.6753 146.925 44.4175 146.825 44.1099 146.825C43.6968 146.825 43.376 146.975 43.1475 147.273C42.9219 147.569 42.8091 147.999 42.8091 148.561V148.715C42.8091 149.263 42.9219 149.685 43.1475 149.98C43.373 150.276 43.6953 150.424 44.1143 150.424ZM48.2451 148.798L47.7354 149.33V151H46.9224V144.25H47.7354V148.333L48.1704 147.81L49.6514 146.245H50.6401L48.79 148.231L50.8555 151H49.9019L48.2451 148.798ZM55.5049 148.675C55.5049 149.402 55.3379 149.986 55.0039 150.429C54.6699 150.868 54.2217 151.088 53.6592 151.088C53.0586 151.088 52.5942 150.875 52.2661 150.451L52.2266 151H51.4795V144.25H52.2925V146.768C52.6206 146.361 53.0732 146.157 53.6504 146.157C54.2275 146.157 54.6802 146.375 55.0083 146.812C55.3394 147.249 55.5049 147.846 55.5049 148.605V148.675ZM54.6919 148.583C54.6919 148.029 54.585 147.602 54.3711 147.3C54.1572 146.998 53.8496 146.847 53.4482 146.847C52.9121 146.847 52.5269 147.096 52.2925 147.594V149.651C52.5415 150.149 52.9297 150.398 53.457 150.398C53.8467 150.398 54.1499 150.247 54.3667 149.945C54.5835 149.644 54.6919 149.189 54.6919 148.583ZM56.3179 148.579C56.3179 148.113 56.4087 147.694 56.5903 147.322C56.7749 146.95 57.0298 146.663 57.355 146.46C57.6831 146.258 58.0566 146.157 58.4756 146.157C59.123 146.157 59.646 146.381 60.0444 146.83C60.4458 147.278 60.6465 147.874 60.6465 148.618V148.675C60.6465 149.138 60.5571 149.554 60.3784 149.923C60.2026 150.29 59.9492 150.575 59.6182 150.78C59.29 150.985 58.9121 151.088 58.4844 151.088C57.8398 151.088 57.3169 150.864 56.9155 150.416C56.5171 149.967 56.3179 149.374 56.3179 148.636V148.579ZM57.1353 148.675C57.1353 149.203 57.2568 149.626 57.5 149.945C57.7461 150.265 58.0742 150.424 58.4844 150.424C58.8975 150.424 59.2256 150.263 59.4688 149.941C59.7119 149.616 59.8335 149.162 59.8335 148.579C59.8335 148.057 59.709 147.635 59.46 147.313C59.2139 146.988 58.8857 146.825 58.4756 146.825C58.0742 146.825 57.7505 146.985 57.5044 147.304C57.2583 147.624 57.1353 148.081 57.1353 148.675ZM63.1646 147.981L64.2192 146.245H65.1685L63.6128 148.596L65.2168 151H64.2764L63.1777 149.22L62.0791 151H61.1343L62.7383 148.596L61.1826 146.245H62.123L63.1646 147.981Z" fill="black"/>
<path d="M101.089 148.412H99.5864V151H98.7383V144.602H100.856C101.577 144.602 102.131 144.766 102.518 145.094C102.907 145.422 103.102 145.899 103.102 146.526C103.102 146.925 102.994 147.272 102.777 147.568C102.563 147.864 102.264 148.085 101.88 148.231L103.383 150.947V151H102.478L101.089 148.412ZM99.5864 147.722H100.883C101.302 147.722 101.634 147.613 101.88 147.396C102.129 147.18 102.254 146.89 102.254 146.526C102.254 146.131 102.135 145.828 101.898 145.617C101.664 145.406 101.324 145.299 100.878 145.296H99.5864V147.722ZM107.097 151C107.05 150.906 107.012 150.739 106.982 150.499C106.604 150.892 106.153 151.088 105.629 151.088C105.16 151.088 104.775 150.956 104.473 150.692C104.174 150.426 104.025 150.089 104.025 149.682C104.025 149.187 104.212 148.803 104.587 148.53C104.965 148.255 105.496 148.117 106.178 148.117H106.969V147.744C106.969 147.459 106.884 147.234 106.714 147.067C106.544 146.897 106.294 146.812 105.963 146.812C105.673 146.812 105.43 146.885 105.233 147.032C105.037 147.178 104.939 147.355 104.939 147.563H104.122C104.122 147.326 104.205 147.098 104.372 146.878C104.542 146.655 104.771 146.479 105.058 146.351C105.348 146.222 105.666 146.157 106.011 146.157C106.559 146.157 106.988 146.295 107.299 146.57C107.609 146.843 107.771 147.219 107.782 147.7V149.888C107.782 150.325 107.838 150.672 107.949 150.93V151H107.097ZM105.748 150.38C106.002 150.38 106.244 150.314 106.473 150.183C106.701 150.051 106.867 149.879 106.969 149.668V148.693H106.332C105.336 148.693 104.838 148.984 104.838 149.567C104.838 149.822 104.923 150.021 105.093 150.165C105.263 150.309 105.481 150.38 105.748 150.38ZM108.859 148.583C108.859 147.854 109.032 147.268 109.377 146.825C109.723 146.38 110.176 146.157 110.735 146.157C111.292 146.157 111.733 146.348 112.058 146.729V144.25H112.871V151H112.124L112.084 150.49C111.759 150.889 111.307 151.088 110.727 151.088C110.176 151.088 109.726 150.862 109.377 150.411C109.032 149.96 108.859 149.371 108.859 148.645V148.583ZM109.672 148.675C109.672 149.214 109.783 149.636 110.006 149.941C110.229 150.246 110.536 150.398 110.929 150.398C111.444 150.398 111.821 150.167 112.058 149.704V147.52C111.815 147.071 111.441 146.847 110.938 146.847C110.539 146.847 110.229 147.001 110.006 147.309C109.783 147.616 109.672 148.072 109.672 148.675ZM115.02 151H114.207V146.245H115.02V151ZM114.141 144.984C114.141 144.852 114.181 144.741 114.26 144.65C114.342 144.559 114.462 144.514 114.62 144.514C114.778 144.514 114.898 144.559 114.98 144.65C115.062 144.741 115.104 144.852 115.104 144.984C115.104 145.116 115.062 145.226 114.98 145.313C114.898 145.401 114.778 145.445 114.62 145.445C114.462 145.445 114.342 145.401 114.26 145.313C114.181 145.226 114.141 145.116 114.141 144.984ZM116.11 148.579C116.11 148.113 116.201 147.694 116.382 147.322C116.567 146.95 116.822 146.663 117.147 146.46C117.475 146.258 117.849 146.157 118.268 146.157C118.915 146.157 119.438 146.381 119.836 146.83C120.238 147.278 120.438 147.874 120.438 148.618V148.675C120.438 149.138 120.349 149.554 120.17 149.923C119.995 150.29 119.741 150.575 119.41 150.78C119.082 150.985 118.704 151.088 118.276 151.088C117.632 151.088 117.109 150.864 116.708 150.416C116.309 149.967 116.11 149.374 116.11 148.636V148.579ZM116.927 148.675C116.927 149.203 117.049 149.626 117.292 149.945C117.538 150.265 117.866 150.424 118.276 150.424C118.689 150.424 119.018 150.263 119.261 149.941C119.504 149.616 119.625 149.162 119.625 148.579C119.625 148.057 119.501 147.635 119.252 147.313C119.006 146.988 118.678 146.825 118.268 146.825C117.866 146.825 117.542 146.985 117.296 147.304C117.05 147.624 116.927 148.081 116.927 148.675Z" fill="black"/>
<path d="M52 61.5V74.5" stroke="black"/>
<rect x="8" y="165" width="55" height="21" rx="10.5" fill="#0148FF"/>
<g filter="url(#filter3_d)">
<path d="M24.9946 176.352C24.9946 176.071 24.895 175.854 24.6958 175.702C24.4995 175.549 24.1436 175.396 23.6279 175.24C23.1123 175.085 22.7021 174.912 22.3975 174.722C21.8145 174.355 21.5229 173.878 21.5229 173.289C21.5229 172.773 21.7324 172.349 22.1514 172.015C22.5732 171.681 23.1196 171.514 23.7905 171.514C24.2358 171.514 24.6328 171.596 24.9814 171.76C25.3301 171.924 25.604 172.158 25.8032 172.463C26.0024 172.765 26.1021 173.1 26.1021 173.469H24.9946C24.9946 173.135 24.8892 172.875 24.6782 172.687C24.4702 172.497 24.1714 172.401 23.7817 172.401C23.4185 172.401 23.1357 172.479 22.9336 172.634C22.7344 172.79 22.6348 173.006 22.6348 173.285C22.6348 173.519 22.7432 173.715 22.96 173.874C23.1768 174.029 23.5342 174.181 24.0322 174.331C24.5303 174.477 24.9302 174.646 25.2319 174.836C25.5337 175.023 25.7549 175.24 25.8955 175.486C26.0361 175.729 26.1064 176.015 26.1064 176.343C26.1064 176.876 25.9014 177.301 25.4912 177.618C25.084 177.931 24.5303 178.088 23.8301 178.088C23.3672 178.088 22.9409 178.003 22.5513 177.833C22.1646 177.66 21.8628 177.423 21.646 177.121C21.4321 176.819 21.3252 176.468 21.3252 176.066H22.437C22.437 176.43 22.5571 176.711 22.7974 176.91C23.0376 177.109 23.3818 177.209 23.8301 177.209C24.2168 177.209 24.5068 177.131 24.7002 176.976C24.8965 176.818 24.9946 176.61 24.9946 176.352ZM29.8594 177.534C29.5459 177.903 29.1006 178.088 28.5234 178.088C28.0078 178.088 27.6167 177.937 27.3501 177.635C27.0864 177.333 26.9546 176.897 26.9546 176.326V173.245H28.0225V176.312C28.0225 176.916 28.2729 177.218 28.7739 177.218C29.2925 177.218 29.6426 177.032 29.8242 176.66V173.245H30.8921V178H29.8857L29.8594 177.534ZM36.1523 175.671C36.1523 176.409 35.9868 176.997 35.6558 177.433C35.3276 177.87 34.875 178.088 34.2979 178.088C33.7412 178.088 33.3076 177.887 32.9971 177.486L32.9443 178H31.9775V171.25H33.0454V173.702C33.353 173.339 33.7676 173.157 34.2891 173.157C34.8691 173.157 35.3247 173.373 35.6558 173.803C35.9868 174.234 36.1523 174.836 36.1523 175.609V175.671ZM35.0845 175.579C35.0845 175.063 34.9937 174.676 34.812 174.418C34.6304 174.161 34.3667 174.032 34.021 174.032C33.5581 174.032 33.2329 174.234 33.0454 174.638V176.598C33.2358 177.011 33.564 177.218 34.0298 177.218C34.3638 177.218 34.6216 177.093 34.8032 176.844C34.9849 176.595 35.0786 176.219 35.0845 175.715V175.579ZM38.0552 173.245L38.0859 173.742C38.4199 173.352 38.877 173.157 39.457 173.157C40.0928 173.157 40.5278 173.4 40.7622 173.887C41.1079 173.4 41.5942 173.157 42.2212 173.157C42.7456 173.157 43.1353 173.302 43.3901 173.592C43.6479 173.882 43.7798 174.31 43.7856 174.875V178H42.7178V174.906C42.7178 174.604 42.6519 174.383 42.52 174.243C42.3882 174.102 42.1699 174.032 41.8652 174.032C41.6221 174.032 41.4229 174.098 41.2676 174.229C41.1152 174.358 41.0083 174.528 40.9468 174.739L40.9512 178H39.8833V174.871C39.8687 174.312 39.583 174.032 39.0264 174.032C38.5986 174.032 38.2954 174.206 38.1167 174.555V178H37.0488V173.245H38.0552ZM46.0181 178H44.9502V173.245H46.0181V178ZM44.8843 172.01C44.8843 171.846 44.9355 171.71 45.0381 171.602C45.1436 171.493 45.293 171.439 45.4863 171.439C45.6797 171.439 45.8291 171.493 45.9346 171.602C46.04 171.71 46.0928 171.846 46.0928 172.01C46.0928 172.171 46.04 172.306 45.9346 172.415C45.8291 172.52 45.6797 172.573 45.4863 172.573C45.293 172.573 45.1436 172.52 45.0381 172.415C44.9355 172.306 44.8843 172.171 44.8843 172.01ZM48.5229 172.089V173.245H49.3623V174.036H48.5229V176.69C48.5229 176.872 48.5581 177.004 48.6284 177.086C48.7017 177.165 48.8306 177.205 49.0151 177.205C49.1382 177.205 49.2627 177.19 49.3887 177.161V177.987C49.1455 178.054 48.9111 178.088 48.6855 178.088C47.8652 178.088 47.4551 177.635 47.4551 176.73V174.036H46.6729V173.245H47.4551V172.089H48.5229Z" fill="white"/>
</g>
<defs>
<filter id="filter0_d" x="7" y="57" width="150" height="23" filterUnits="userSpaceOnUse" color-interpolation-filters="sRGB">
<feFlood flood-opacity="0" result="BackgroundImageFix"/>
<feColorMatrix in="SourceAlpha" type="matrix" values="0 0 0 0 0 0 0 0 0 0 0 0 0 0 0 0 0 0 127 0" result="hardAlpha"/>
<feMorphology radius="1" operator="dilate" in="SourceAlpha" result="effect1_dropShadow"/>
<feOffset/>
<feComposite in2="hardAlpha" operator="out"/>
<feColorMatrix type="matrix" values="0 0 0 0 0.454167 0 0 0 0 0.57425 0 0 0 0 1 0 0 0 0.25 0"/>
<feBlend mode="normal" in2="BackgroundImageFix" result="effect1_dropShadow"/>
<feBlend mode="normal" in="SourceGraphic" in2="effect1_dropShadow" result="shape"/>
</filter>
<filter id="filter1_d" x="83" y="145" width="8" height="8" filterUnits="userSpaceOnUse" color-interpolation-filters="sRGB">
<feFlood flood-opacity="0" result="BackgroundImageFix"/>
<feColorMatrix in="SourceAlpha" type="matrix" values="0 0 0 0 0 0 0 0 0 0 0 0 0 0 0 0 0 0 127 0" result="hardAlpha"/>
<feOffset dy="1"/>
<feGaussianBlur stdDeviation="0.5"/>
<feComposite in2="hardAlpha" operator="out"/>
<feColorMatrix type="matrix" values="0 0 0 0 0 0 0 0 0 0 0 0 0 0 0 0 0 0 0.25 0"/>
<feBlend mode="normal" in2="BackgroundImageFix" result="effect1_dropShadow"/>
<feBlend mode="normal" in="SourceGraphic" in2="effect1_dropShadow" result="shape"/>
</filter>
<filter id="filter2_d" x="9.5" y="144.5" width="11" height="9.00001" filterUnits="userSpaceOnUse" color-interpolation-filters="sRGB">
<feFlood flood-opacity="0" result="BackgroundImageFix"/>
<feColorMatrix in="SourceAlpha" type="matrix" values="0 0 0 0 0 0 0 0 0 0 0 0 0 0 0 0 0 0 127 0" result="hardAlpha"/>
<feOffset dy="1"/>
<feGaussianBlur stdDeviation="0.5"/>
<feComposite in2="hardAlpha" operator="out"/>
<feColorMatrix type="matrix" values="0 0 0 0 0 0 0 0 0 0 0 0 0 0 0 0 0 0 0.25 0"/>
<feBlend mode="normal" in2="BackgroundImageFix" result="effect1_dropShadow"/>
<feBlend mode="normal" in="SourceGraphic" in2="effect1_dropShadow" result="shape"/>
</filter>
<filter id="filter3_d" x="20.3252" y="170.75" width="30.0635" height="8.83789" filterUnits="userSpaceOnUse" color-interpolation-filters="sRGB">
<feFlood flood-opacity="0" result="BackgroundImageFix"/>
<feColorMatrix in="SourceAlpha" type="matrix" values="0 0 0 0 0 0 0 0 0 0 0 0 0 0 0 0 0 0 127 0" result="hardAlpha"/>
<feOffset dy="0.5"/>
<feGaussianBlur stdDeviation="0.5"/>
<feComposite in2="hardAlpha" operator="out"/>
<feColorMatrix type="matrix" values="0 0 0 0 0 0 0 0 0 0 0 0 0 0 0 0 0 0 0.25 0"/>
<feBlend mode="normal" in2="BackgroundImageFix" result="effect1_dropShadow"/>
<feBlend mode="normal" in="SourceGraphic" in2="effect1_dropShadow" result="shape"/>
</filter>
</defs>
</svg>
